Patient4_TMGait_0pt2_01_left_03_GRF.mot
version=1
nRows=52
nColumns=19
inDegrees=no
endheader
time	F1x	F1y	F1z	M1x	M1y	M1z	F2x	F2y	F2z	M2x	M2y	M2z	EC1x	EC1y	EC1z	EC2x	EC2y	EC2z
5.67	1.8635	90.6648	13.6398	-30.3746	-13.7287	94.8991	-8.0864	699.6845	-26.0322	259.5612	32.4825	756.6495	-0.0592	0.0182	-0.0073	-0.0462	0.0165	0.9585
5.6943	-0.0036461	77.5009	11.9736	-25.9659	-12.5884	81.2115	-7.8767	715.7285	-27.7605	264.2391	34.2308	773.3073	-0.0592	0.0182	-0.0073	-0.0462	0.0165	0.9585
5.7186	-1.7018	62.518	10.0354	-20.9447	-11.1104	65.5768	-8.1886	733.1127	-29.9568	269.018	36.5987	791.5087	-0.0592	0.0182	-0.0073	-0.0462	0.0165	0.9585
5.7429	-2.9325	47.0517	7.9442	-15.762	-9.3195	49.4053	-9.0697	750.0325	-32.5611	273.247	39.5323	809.3704	-0.0592	0.0182	-0.0073	-0.0462	0.0165	0.9585
5.7671	-3.4707	32.5401	5.8488	-10.9016	-7.2965	34.2157	-10.4233	764.6999	-35.4096	276.3488	42.8278	824.9616	-0.0592	0.0182	-0.0073	-0.0462	0.0165	0.9585
5.7914	-3.3151	20.1725	3.9267	-6.7634	-5.2271	21.2692	-12.027	775.8793	-38.2269	278.0172	46.1257	836.8639	-0.0592	0.0182	-0.0073	-0.0462	0.0165	0.9585
5.8157	-2.7436	10.6297	2.3497	-3.5741	-3.3818	11.2889	-13.5706	783.2036	-40.6888	278.3057	48.9891	844.5142	-0.0592	0.0182	-0.0073	-0.0462	0.0165	0.9585
5.84	-2.0283	3.9504	1.186	-1.345	-1.9218	4.3177	-14.708	787.1571	-42.5232	277.5805	51.0285	848.22	-0.0592	0.0182	-0.0073	-0.0462	0.0165	0.9585
5.8643	-1.34	-0.25934	0.41236	0.056646	-0.88016	-0.063212	-15.1555	788.7882	-43.5626	276.3802	51.9931	848.9071	-0.0592	0.0182	-0.0073	-0.0462	0.0165	0.9585
5.8886	-0.77119	-2.5756	-0.041111	0.82581	-0.21522	-2.4625	-14.7636	789.2969	-43.7445	275.2454	51.7867	847.7215	-0.0592	0.0182	-0.0073	-0.0462	0.0165	0.9585
5.9129	-0.35528	-3.599	-0.26105	1.1664	0.15267	-3.5152	-13.5293	789.7009	-43.0945	274.5931	50.4515	845.6941	-0.0592	0.0182	-0.0073	-0.0462	0.0165	0.9585
5.9371	-0.084417	-3.8672	-0.33097	1.2604	0.31339	-3.7902	-11.5711	790.7001	-41.7164	274.6772	48.149	843.6046	-0.0592	0.0182	-0.0073	-0.0462	0.0165	0.9585
5.9614	0.066144	-3.8117	-0.32131	1.2532	0.34954	-3.7448	-9.0962	792.6446	-39.7801	275.5841	45.1325	841.9413	-0.0592	0.0182	-0.0073	-0.0462	0.0165	0.9585
5.9857	0.12822	-3.7445	-0.28576	1.2499	0.33063	-3.7151	-6.3488	795.4572	-37.5076	277.2161	41.7115	840.7963	-0.0592	0.0182	-0.0073	-0.0462	0.0165	0.9585
6.01	0.13994	-3.8622	-0.26257	1.3161	0.31147	-3.9103	-3.5469	798.6283	-35.1559	279.2968	38.2151	839.8181	-0.0592	0.0182	-0.0073	-0.0462	0.0165	0.9585
6.0343	0.1351	-4.2483	-0.28046	1.4783	0.33559	-4.4147	-0.84123	801.3435	-32.9842	281.4271	34.9449	838.3048	-0.0592	0.0182	-0.0073	-0.0462	0.0165	0.9585
6.0586	0.1471	-4.8687	-0.36133	1.7213	0.43549	-5.1857	1.7281	802.736	-31.2125	283.1913	32.1154	835.4343	-0.0592	0.0182	-0.0073	-0.0462	0.0165	0.9585
6.0829	0.20845	-5.5583	-0.51617	1.9815	0.63186	-6.0401	4.2367	802.2679	-29.976	284.3012	29.8127	830.6544	-0.0592	0.0182	-0.0073	-0.0462	0.0165	0.9585
6.1071	0.35067	-5.9957	-0.74225	2.1399	0.93318	-6.6248	6.7774	799.8739	-29.3376	284.6484	28.0478	823.88	-0.0592	0.0182	-0.0073	-0.0462	0.0165	0.9585
6.1314	0.60088	-5.6732	-1.0174	2.0121	1.3257	-6.3855	9.3889	795.7824	-29.3121	284.2458	26.8139	815.3468	-0.0592	0.0182	-0.0073	-0.0462	0.0165	0.9585
6.1557	0.97471	-3.8892	-1.2956	1.3437	1.7638	-4.5492	12.0631	790.2929	-29.8408	283.1551	26.0582	805.395	-0.0592	0.0182	-0.0073	-0.0462	0.0165	0.9585
6.18	1.4702	0.2339	-1.4998	-0.18238	2.1602	-0.13975	14.7424	783.5351	-30.7833	281.4015	25.6731	794.233	-0.0592	0.0182	-0.0073	-0.0462	0.0165	0.9585
6.2043	2.0568	7.6844	-1.5129	-2.9183	2.3701	7.9542	17.2971	775.2025	-31.9656	278.8681	25.5484	781.6734	-0.0592	0.0182	-0.0073	-0.0462	0.0165	0.9585
6.2286	2.6509	19.4147	-1.1691	-7.1956	2.1745	20.8188	19.5457	764.4766	-33.225	275.2632	25.605	767.0412	-0.0592	0.0182	-0.0073	-0.0462	0.0165	0.9585
6.2529	3.0371	36.1174	-0.26373	-13.2457	1.2627	39.2701	21.3063	750.2621	-34.4065	270.204	25.7733	749.3817	-0.0592	0.0182	-0.0073	-0.0462	0.0165	0.9585
6.2771	2.8768	57.9094	1.3986	-21.0895	-0.70828	63.5156	22.4291	731.5443	-35.3567	263.3453	25.9759	727.7939	-0.0592	0.0182	-0.0073	-0.0462	0.0165	0.9585
6.3014	1.9256	84.0679	3.9012	-30.4474	-3.9172	92.8447	22.8389	707.772	-35.9374	254.5192	26.1225	701.781	-0.0592	0.0182	-0.0073	-0.0462	0.0165	0.9585
6.3257	0.15815	113.217	7.0848	-40.8191	-8.1879	125.7856	22.5705	679.2427	-36.0459	243.875	26.1143	671.6154	-0.0592	0.0182	-0.0073	-0.0462	0.0165	0.9585
6.35	-2.3375	143.9965	10.6231	-51.7205	-13.1212	160.838	21.7453	647.1928	-35.6359	231.909	25.8737	638.4333	-0.0592	0.0182	-0.0073	-0.0462	0.0165	0.9585
6.3743	-5.4327	175.4133	14.1944	-62.8015	-18.3099	196.8625	20.518	613.4053	-34.7268	219.3192	25.3687	603.8719	-0.0592	0.0182	-0.0073	-0.0462	0.0165	0.9585
6.3986	-8.9305	206.7781	17.5392	-73.8243	-23.386	232.9903	19.0318	579.6154	-33.3937	206.7826	24.6188	569.5208	-0.0592	0.0182	-0.0073	-0.0462	0.0165	0.9585
6.4229	-12.5073	237.5509	20.5257	-84.6076	-28.0676	268.4396	17.4014	547.0573	-31.7676	194.7828	23.6994	536.5089	-0.0592	0.0182	-0.0073	-0.0462	0.0165	0.9585
6.4471	-15.7421	267.25	23.1442	-94.99	-32.1681	302.4383	15.7173	516.3299	-29.9987	183.5583	22.7076	505.3758	-0.0592	0.0182	-0.0073	-0.0462	0.0165	0.9585
6.4714	-18.2272	295.4843	25.4385	-104.8411	-35.5709	334.312	14.0536	487.5836	-28.2027	173.1707	21.7111	476.2445	-0.0592	0.0182	-0.0073	-0.0462	0.0165	0.9585
6.4957	-19.6552	322.0255	27.4584	-114.0881	-38.2152	363.6134	12.4701	460.779	-26.4481	163.5972	20.7384	449.066	-0.0592	0.0182	-0.0073	-0.0462	0.0165	0.9585
6.52	-19.8829	346.8242	29.2401	-122.7227	-40.1008	390.185	11.0162	435.853	-24.7834	154.792	19.8045	423.7721	-0.0592	0.0182	-0.0073	-0.0462	0.0165	0.9585
6.5443	-18.9806	369.9817	30.8042	-130.7915	-41.2986	414.1602	9.7322	412.7715	-23.2595	146.7092	18.9316	400.3218	-0.0592	0.0182	-0.0073	-0.0462	0.0165	0.9585
6.5686	-17.2297	391.6639	32.1589	-138.3617	-41.9434	435.8674	8.634	391.4919	-21.9277	139.2962	18.1534	378.6722	-0.0592	0.0182	-0.0073	-0.0462	0.0165	0.9585
6.5929	-15.0203	412.051	33.3034	-145.4983	-42.1925	455.7152	7.7143	371.8856	-20.8261	132.473	17.5038	358.708	-0.0592	0.0182	-0.0073	-0.0462	0.0165	0.9585
6.6171	-12.7013	431.3179	34.2371	-152.2559	-42.1768	474.0907	6.9594	353.6594	-19.9616	126.1104	16.993	340.1604	-0.0592	0.0182	-0.0073	-0.0462	0.0165	0.9585
6.6414	-10.4756	449.6238	34.9689	-158.6817	-41.9746	491.2876	6.3619	336.3775	-19.3062	120.0402	16.5984	322.6188	-0.0592	0.0182	-0.0073	-0.0462	0.0165	0.9585
6.6657	-8.3643	467.1121	35.5211	-164.8238	-41.6087	507.484	5.9145	319.6129	-18.8096	114.1091	16.2803	305.6826	-0.0592	0.0182	-0.0073	-0.0462	0.0165	0.9585
6.69	-6.2726	483.8571	35.9305	-170.7153	-41.077	522.7216	5.6092	303.1267	-18.4199	108.2398	15.9997	289.1296	-0.0592	0.0182	-0.0073	-0.0462	0.0165	0.9585
6.7143	-4.097	499.837	36.2341	-176.3618	-40.3775	536.9398	5.4274	286.9497	-18.1044	102.458	15.7411	272.9893	-0.0592	0.0182	-0.0073	-0.0462	0.0165	0.9585
6.7386	-1.8087	514.9449	36.4512	-181.7419	-39.523	550.03	5.3277	271.3659	-17.8538	96.8839	15.5183	257.529	-0.0592	0.0182	-0.0073	-0.0462	0.0165	0.9585
6.7629	0.53024	529.0347	36.5691	-186.8157	-38.5312	561.901	5.2537	256.8037	-17.6641	91.6899	15.3536	243.1493	-0.0592	0.0182	-0.0073	-0.0462	0.0165	0.9585
6.7871	2.8034	541.9695	36.5492	-191.5347	-37.4117	572.5107	5.1623	243.6944	-17.5274	87.0436	15.2582	230.2455	-0.0592	0.0182	-0.0073	-0.0462	0.0165	0.9585
6.8114	4.8727	553.6574	36.3581	-195.8524	-36.1834	581.8898	5.0438	232.3302	-17.4324	83.053	15.2239	219.077	-0.0592	0.0182	-0.0073	-0.0462	0.0165	0.9585
6.8357	6.6007	564.1028	36.0112	-199.7431	-34.9138	590.1727	4.9207	222.7423	-17.3671	79.7211	15.2274	209.6535	-0.0592	0.0182	-0.0073	-0.0462	0.0165	0.9585
6.86	7.8858	573.488	35.5765	-203.2385	-33.7131	597.6451	4.8353	214.6486	-17.3222	76.931	15.2374	201.6941	-0.0592	0.0182	-0.0073	-0.0462	0.0165	0.9585
6.8843	8.7022	582.2472	35.1492	-206.4623	-32.6875	604.791	4.8176	207.5013	-17.2839	74.4696	15.2221	194.677	-0.0592	0.0182	-0.0073	-0.0462	0.0165	0.9585
6.9086	9.1058	591.0656	34.8403	-209.6336	-31.9249	612.284	4.863	200.5903	-17.225	72.0693	15.1508	187.9385	-0.0592	0.0182	-0.0073	-0.0462	0.0165	0.9585
